<?xml version="1.0" encoding="utf-8"?>
<!-- Generator: Adobe Illustrator 21.1.0, SVG Export Plug-In . SVG Version: 6.00 Build 0)  -->
<svg version="1.1" id="Capa_1" xmlns="http://www.w3.org/2000/svg" xmlns:xlink="http://www.w3.org/1999/xlink" x="0px" y="0px"
	 viewBox="0 0 1091.5 309.6" style="enable-background:new 0 0 1091.5 309.6;" xml:space="preserve">
<style type="text/css">
	.st0{fill:#80B4D3;}
</style>
<path class="st0" d="M425.7,82.1c1.9,2.6,1,4.8-0.3,7c-11,19-21.4,38.3-30.6,58.3c-15.6,34.1-27,69.5-34.8,106.2
	c-1.8,8.5-4,17-4.6,25.7c-0.3,4.6-0.4,9.3-0.6,13.9c-0.1,1.5,0,3.1-0.2,4.6c-1.4,8.4-7.2,12.6-15.8,11.4
	c-9.5-1.3-17.9-5.3-25.7-10.6c-4.4-3-5.6-7.9-5.8-13c-0.3-7.6,1.5-15,3.4-22.3c10.6-41.2,22.8-81.9,38.4-121.6
	c6-15.2,12.5-30.1,19.3-44.9c0.6-1.2,1.2-2.5,1.5-3.8c0.5-1.9-0.2-2.8-2.2-2.7c-2.5,0.1-4.9,0.4-7.4,0.5c-10,0.4-20,0.8-29.8-2.4
	c-1.9-0.6-3.6-1.4-5.3-2.4c-4.5-2.7-7.1-6.3-6.9-11.9c0.2-5.1,0.4-10.1,1.5-15.1c1.1-5.1,6.8-8.4,10.7-8.5c4.1-0.1,7.9,1.1,11.8,1.7
	c9.7,1.6,19.5,1.4,29.3,0.8c15.5-1,30.9-2.8,46.2-5.6c13.1-2.4,26.3-4.7,39.6-5.8c9.1-0.7,18.3-1.9,27.4-0.6
	c14.1,2,26.3,8.4,36.7,18.1c4.2,4,4.6,7.8,2.1,13.7c-3.8,8.8-15,12.8-21.5,12.8c-3.4,0-6.2-1.9-8.6-4.2c-3.7-3.7-8.5-5.4-13.4-5.5
	c-17.9-0.2-35.6,2-53.1,5.8C426.6,81.8,426.3,81.9,425.7,82.1z"/>
<path class="st0" d="M1091.5,149c-0.7,0.7-1.2,1.6-2,1.9c-5.9,2.6-11,7.1-17.5,8.3c-6.6,1.2-12.9,3.2-19.4,4.9
	c-7.4,1.9-15,2.8-22.6,2.8c-4.1,0-4.9,0.6-6,4.7c-1.6,6-3.1,12.1-4.8,18.1c-5.9,20.6-13.3,40.5-24.1,59
	c-10.2,17.5-22.8,33-38.4,45.8c-6.5,5.3-13.9,8.6-22.4,9c-4.2,0.2-8.3-0.4-12.1-2.1c-10-4.4-19.4-9.8-27.5-17.3
	c-3.1-2.8-5.7-6-7.7-9.8c-2.6,2.9-5.1,5.7-7.7,8.5c-7.4,7.9-15.4,15.2-24.9,20.6c-10.6,6.2-21.7,8-33.6,4.3
	c-13-4-24.4-10.3-32.9-21.2c-1.2-1.5-2.2-3.2-3.4-5c-1.3,1.4-2.7,2.8-4.1,4.2c-6.9,7-14.3,13.4-22.9,18.2
	c-9.9,5.5-20.1,7.3-31.2,4.2c-12.3-3.5-23.2-9.1-32-18.5c-5.6-6-8.5-13-8.8-21.2c0-0.4,0-0.9-0.1-1.3c0-0.1-0.1-0.1-0.3-0.3
	c-2.7,2.2-5.5,4.4-8.3,6.6c-15.3,11.8-31.7,21.8-48.5,31.1c-9.3,5.2-19.3,4.9-29.2,2.5c-12.6-3.1-24.1-8.7-35.3-15.1
	c-7.9-4.5-12.7-12-16.5-20c-5.3-11.2-8.4-23-9-35.4c-0.5-9.4,1.8-18.3,4.8-27c4.8-14.1,11.2-27.5,18.9-40.2c1-1.7,0.7-2.1-1.1-2.7
	c-4.4-1.5-8.4-1.1-12.7,1.1c-23,11.3-43.8,25.6-61.3,44.5c-19.2,20.7-32,44.8-38.2,72.4c-1.5,6.8-4.9,12.5-10,17.2
	c-5.3,4.8-12.1,6-18.3,2.4c-8-4.8-14-11.5-17.4-20.2c-2.3-6-0.7-11.7,1.8-17.3c1.9-4.2,4.5-8,7.1-11.7c4-5.8,8.6-11.3,10.9-18
	c10.4-29.6,20.6-59.3,27.8-89.9c0.7-3,1.1-6.1,1.7-9.2c0.4-2.3-0.2-4.3-1.4-6.2c-3.3-5.1-2.7-8.7,2.6-11.8
	c10.5-6.1,21.2-6.4,31.9-0.4c1.6,0.9,2.7,2.3,3.7,3.9c5.2,9.1,6.7,18.9,5.3,29.2c-0.2,1.1-1,2.7,0.3,3.4c1.2,0.7,2.3-0.6,3.2-1.4
	c11.6-8.7,23.7-16.7,36.9-23c17.1-8.2,33.1-5.4,48.2,5c1.4,1,1.8,0.3,2.5-0.6c7.5-9.4,15.5-18.4,23.7-27.3
	c13.4-14.5,30.1-21.3,49.7-21.2c8.6,0,16.8,1.7,25,4.2c12.3,3.8,17.1,13.3,18.2,23.8c1.2,11.6-2.6,22-7.3,32.3
	c-5.3,11.7-13,21.9-21.3,31.7c-17.7,20.9-36.5,40.6-58,57.7c-8.9,7-18.2,13.5-27.9,19.4c-4.3,2.6-4.6,3.7-2.7,8.3
	c3.9,9.5,11.4,11.9,21.7,9.2c6.6-1.8,12.5-5,18.4-8.3c17.5-9.8,32.8-22.6,47.9-35.8c7.5-6.6,15.3-12.9,24-17.9
	c0.8-0.4,1.2-1,1.5-1.8c18.5-48.1,43.1-93.2,68.3-138.1c5.5-9.9,11.2-19.7,17-29.4c3.1-5.3,5.8-10.7,7.7-16.5
	c1.8-5.4,4-10.6,7.1-15.3C802.9,4,808.8,0,817.3,0.3c3.9,0.2,7.8-0.3,11.8-0.3c4.7-0.1,9.2,0.8,13.4,3c2.2,1.1,3.7,2.8,4.8,5.1
	c4.9,9.7,3.7,18.8-2,27.8c-18,28.3-37.1,56-55.1,84.4c-16,25.3-31,51.1-42.6,78.7c-5.6,13.4-11.6,26.6-16.3,40.3
	c-3.4,10-4.6,20.4-4.2,30.9c0.1,2.4,0.1,5.3,2.7,6.5c2.4,1.1,4.2-0.9,6-2.2c7.2-5.1,13.4-11.3,19.5-17.7c6.5-6.8,12.7-14,20.3-19.7
	c3-2.3,6.2-4.2,9.9-5.5c0.8-0.3,1.3-0.6,1.6-1.5c17.4-51.3,42.6-98.8,68.7-145.9c7.5-13.4,15.1-26.8,22.9-40
	c4-6.7,7.1-13.7,9.7-21.1c2.3-6.4,5.2-12.6,10.2-17.5c3.4-3.3,7.5-5.1,12.3-5.2c4.6-0.1,9.3-0.3,13.9-0.4c4.6-0.1,9.1,0.8,13.3,2.9
	c2.3,1.2,4,2.9,5.2,5.3c4.8,9.7,3.6,18.7-2.1,27.6c-18.1,28.5-37.3,56.2-55.3,84.8c-15.8,25.1-30.7,50.7-42.3,78.2
	c-5.7,13.5-11.9,26.9-16.4,40.9c-3.4,10.4-4.8,21.2-3.9,32.2c0,0.4,0.1,0.7,0.1,1.1c0.9,4.2,3.2,5.1,6.7,2.7
	c5.3-3.6,10.2-7.7,14.6-12.3c6.4-6.5,12.7-13.2,19.1-19.7c4.4-4.4,9.2-8.4,15-11c0.7-0.3,1.1-0.8,1.1-1.6
	c1.7-21.7,9.8-41.3,20.3-60.1c4.7-8.4,9.8-16.4,15.1-24.4c1-1.5,2.1-3,3.3-4.3c5.8-6,10.2-13.2,15.5-19.7
	c6.5-7.9,13.7-15.2,22.4-20.8c17.6-11.5,39.6-4.9,50.2,6.2c1.7,1.8,3,3.9,3.9,6.2c1.6,4.2,3.3,8.4,5.5,12.3
	c2.5,4.4,6.3,6.5,11.3,6.5c7.9,0,15.8-0.9,23.7-1.1c8.9-0.3,17.7-0.2,26.3,2.4c5.5,1.7,10.5,4.2,13.8,9.1
	C1091.5,145.2,1091.5,147.1,1091.5,149z M982.2,148.1c0-3.5-0.2-6.8-3.4-9.2c-0.7-0.5-1-1.4-1.4-2.2c-0.7-1.5-1.7-1.6-3-1.1
	c-2.2,0.8-3.7,2.5-5.1,4.3c-15.5,20.4-29.3,41.8-39.9,65.2c-5.3,11.7-9.7,23.8-11,36.7c-0.7,7.2-0.2,14.3,3.4,20.7
	c3.4,6,5.7,7.9,11.9,1.1c2.7-2.9,4.7-6.5,6.9-9.8c11-16.5,21.9-33,30-51.2c7.1-16,11.7-32.6,11.6-50.3
	C982.2,151.1,982.2,149.6,982.2,148.1z M653.9,122.6c-3.2,1.3-5.9,3.4-8.5,5.7c-8.6,7.4-16.3,15.8-23.8,24.2
	c-13.9,15.8-25,33.4-33.2,52.8c-0.6,1.4-1.9,3.2-0.2,4.3c1.5,1.1,2.8-0.6,3.9-1.5c5.8-4.9,11.3-10.2,16.7-15.6
	c17.9-17.7,34.6-36.3,45.7-59.3c1.3-2.6,2.8-5.1,2.8-7C657.6,122.4,656.4,121.5,653.9,122.6z"/>
<path class="st0" d="M0,176.2c0-32.4,0-64.8,0-97.1c0-14.7,8.5-26.8,22.2-31.6c3.5-1.2,7.2-1.7,10.9-1.7c65.1,0,130.1,0,195.2,0
	c18.8,0,33.1,14.3,33.1,33.1c0,65.1,0.1,130.1,0,195.2c0,18.8-14.3,33.1-33.1,33.1c-65.1,0-130.1,0.1-195.2,0
	C14.3,307.1,0,292.8,0,273.8C0,241.3,0,208.7,0,176.2z M113.7,96.7c0-10.5-6.5-17-16.9-17c-15.2,0-30.5,0-45.7,0
	C40.4,79.7,34,86.2,34,96.8c0,48.5,0,97,0,145.5c0,10.6,6.3,17.1,16.8,17.1c15.4,0.1,30.8,0.1,46.2,0c10.4-0.1,16.7-6.6,16.7-17
	c0-24.3,0-48.5,0-72.8C113.7,145.4,113.7,121.1,113.7,96.7z M227.5,96.5c0-10.2-6.6-16.7-16.8-16.7c-15.3,0-30.6,0-46,0
	c-10.5,0-17,6.5-17,16.9c0,26.9,0,53.7,0,80.6c0,10.1,6.3,16.7,16.5,16.8c15.6,0.1,31.2,0.1,46.8,0c10.1-0.1,16.5-6.7,16.5-16.8
	c0-13.4,0-26.9,0-40.3C227.5,123.5,227.5,110,227.5,96.5z"/>
</svg>
